<?xml version="1.0" encoding="UTF-8"?>
<svg width="31px" height="32px" viewBox="0 0 31 32" version="1.1" xmlns="http://www.w3.org/2000/svg" xmlns:xlink="http://www.w3.org/1999/xlink">
    <title>50060E2F-164A-4AFB-B757-6802DA1B1BDE</title>
    <g id="High-Fidelity" stroke="none" stroke-width="1" fill="none" fill-rule="evenodd">
        <g id="XL-Desktop---Email-Services---v01" transform="translate(-1281.000000, -2271.000000)" fill-rule="nonzero">
            <g id=".o-plan-comparison__fos-xl" transform="translate(376.000000, 1960.000000)">
                <g id=".m-chart__row03" transform="translate(0.000000, 295.000000)">
                    <g id=".m-chart__google-chat" transform="translate(905.000000, 2.000000)">
                        <g id=".a-icon__google-chat" transform="translate(0.000000, 14.000000)">
                            <path d="M6.9,17.1 L6.9,6.8 L2.4,6.8 C1.074,6.8 0,7.874 0,9.2 L0,30.502 C0,31.572 1.292,32.106 2.048,31.35 L7,26.4 L21.1,26.4 C22.426,26.4 23.5,25.326 23.5,24 L23.5,19.5 L9.3,19.5 C7.974,19.5 6.9,18.426 6.9,17.1 Z" id="Path" fill="#00AC47"></path>
                            <path d="M28,0 L9.3,0 C7.974,0 6.9,1.074 6.9,2.4 L6.9,6.8 L21.1,6.8 C22.426,6.8 23.5,7.874 23.5,9.2 L23.5,19.5 L28,19.5 C29.326,19.5 30.4,18.426 30.4,17.1 L30.4,2.4 C30.4,1.074 29.326,0 28,0 Z" id="Path" fill="#5BB974"></path>
                            <path d="M21.1,6.8 L6.9,6.8 L6.9,17.1 C6.9,18.426 7.974,19.5 9.3,19.5 L23.5,19.5 L23.5,9.2 C23.5,7.874 22.426,6.8 21.1,6.8 Z" id="Path" fill="#00832D"></path>
                        </g>
                    </g>
                </g>
            </g>
        </g>
    </g>
</svg>