<?xml version="1.0" encoding="UTF-8"?>
<svg width="35px" height="31px" viewBox="0 0 35 31" version="1.1" xmlns="http://www.w3.org/2000/svg" xmlns:xlink="http://www.w3.org/1999/xlink">
    <title>224518E5-C90E-4C6C-9BCC-C056C0057ACC</title>
    <g id="High-Fidelity" stroke="none" stroke-width="1" fill="none" fill-rule="evenodd">
        <g id="XL-Desktop---Email-Services---v01" transform="translate(-1279.000000, -2511.000000)" fill-rule="nonzero">
            <g id=".o-plan-comparison__fos-xl" transform="translate(376.000000, 1960.000000)">
                <g id=".m-chart__row07" transform="translate(0.000000, 535.000000)">
                    <g id=".m-chart__google-drive" transform="translate(903.000000, 2.000000)">
                        <g id=".a-icon__google-drive" transform="translate(0.000000, 14.000000)">
                            <path d="M2.60128537,26.3478677 L4.11870183,28.9688598 C4.43152507,29.5083221 4.87988221,29.9566792 5.41934451,30.2695024 L10.838689,20.8891098 L0,20.8891098 C0.000412092055,21.5114236 0.163452554,22.1228253 0.472960976,22.6627134 L2.60128537,26.3478677 Z" id="Path" fill="#0066DA"></path>
                            <path d="M17.2039555,9.85335366 L11.784611,0.472960976 C11.2451487,0.785784218 10.7967915,1.23414136 10.4839683,1.77360366 L0.472960976,19.1155061 C0.162423342,19.6549699 -0.000691723286,20.2666514 -2.19091099e-06,20.8891098 L10.838689,20.8891098 L17.2039555,9.85335366 Z" id="Path" fill="#00AC47"></path>
                            <path d="M28.9885665,30.2695024 C29.5280288,29.9566792 29.9763859,29.5083221 30.2892091,28.9688598 L30.9198238,27.8849909 L33.93495,22.6627134 C34.2444584,22.1228253 34.4074989,21.5114236 34.407911,20.8891098 L23.569222,20.8891098 L25.8749067,25.4216524 L28.9885665,30.2695024 Z" id="Path" fill="#EA4335"></path>
                            <path d="M17.2039555,9.85335366 L22.6233,0.472960976 C22.0853773,0.158706483 21.4726689,-0.00468243412 20.8496963,-9.78853127e-05 L13.5582146,-9.78853127e-05 C12.9364916,0.00484779691 12.3261954,0.167593467 11.784611,0.472960976 L17.2039555,9.85335366 Z" id="Path" fill="#00832D"></path>
                            <path d="M23.569222,20.8891098 L10.838689,20.8891098 L5.41934451,30.2695024 C5.9572672,30.5837569 6.56997564,30.7471458 7.19294817,30.7425613 L27.2149628,30.7425613 C27.8366858,30.7376156 28.4469821,30.5748699 28.9885665,30.2695024 L23.569222,20.8891098 Z" id="Path" fill="#2684FC"></path>
                            <path d="M28.9294463,10.4445549 L23.9239427,1.77360366 C23.6111194,1.23414136 23.1627623,0.785784218 22.6233,0.472960976 L17.2039555,9.85335366 L23.569222,20.8891098 L34.3882043,20.8891098 C34.3877922,20.2667959 34.2247517,19.6553942 33.9152433,19.1155061 L28.9294463,10.4445549 Z" id="Path" fill="#FFBA00"></path>
                        </g>
                    </g>
                </g>
            </g>
        </g>
    </g>
</svg>