<?xml version="1.0" encoding="UTF-8"?>
<svg width="35px" height="29px" viewBox="0 0 35 29" version="1.1" xmlns="http://www.w3.org/2000/svg" xmlns:xlink="http://www.w3.org/1999/xlink">
    <title>51D0ED60-E479-4843-ABAE-E0A41FCE6E4D</title>
    <g id="High-Fidelity" stroke="none" stroke-width="1" fill="none" fill-rule="evenodd">
        <g id="XL-Desktop---Email-Services---v01" transform="translate(-1279.000000, -2212.000000)" fill-rule="nonzero">
            <g id=".o-plan-comparison__fos-xl" transform="translate(376.000000, 1960.000000)">
                <g id=".m-chart__row02" transform="translate(0.000000, 235.000000)">
                    <g id=".m-chart__google-meet" transform="translate(903.000000, 2.000000)">
                        <g id=".a-icon__google-meet" transform="translate(0.000000, 15.000000)">
                            <polygon id="Path" fill="#00832D" points="19.5096402 14.1888293 22.8597805 18.0316372 27.3923232 20.9206405 28.1805915 14.22036 27.3923232 7.6619678 22.784895 10.1962504"></polygon>
                            <path d="M0,20.2979085 L0,26.0128537 C0,27.3188993 1.05875921,28.3776585 2.36480488,28.3776585 L8.07975,28.3776585 L9.26215244,24.0421829 L8.07975,20.2821432 L4.15811524,19.0997407 L0,20.2979085 Z" id="Path" fill="#0066DA"></path>
                            <polygon id="Path" fill="#E94235" points="8.07975 0 0 8.07975 4.15811524 9.26215244 8.09945671 8.07975 9.26215244 4.36700634"></polygon>
                            <polygon id="Path" fill="#2684FC" points="8.07975 8.07975 0 8.07975 0 20.2979085 8.07975 20.2979085"></polygon>
                            <path d="M32.5515391,3.42108439 L27.3923232,7.65408512 L27.3923232,20.9206405 L32.5751872,25.1733479 C32.9317438,25.4526568 33.4165241,25.5037398 33.8234666,25.3048834 C34.2304091,25.1060269 34.4879963,24.6921788 34.4867424,24.23925 L34.4867424,4.33547561 C34.4877443,3.87719044 34.2238382,3.45959677 33.8094788,3.26380981 C33.3951193,3.06802285 32.9049407,3.12930769 32.5515391,3.42108439 Z M19.5096402,14.1888293 L19.5096402,20.2979085 L8.07975,20.2979085 L8.07975,28.3776585 L25.0275183,28.3776585 C26.333564,28.3776585 27.3923232,27.3188993 27.3923232,26.0128537 L27.3923232,20.9206405 L19.5096402,14.1888293 Z" id="Shape" fill="#00AC47"></path>
                            <path d="M25.0275183,0 L8.07975,0 L8.07975,8.07975 L19.5096402,8.07975 L19.5096402,14.1888293 L27.3923232,7.65408512 L27.3923232,2.36480488 C27.3923232,1.05875921 26.333564,0 25.0275183,0 Z" id="Path" fill="#FFBA00"></path>
                        </g>
                    </g>
                </g>
            </g>
        </g>
    </g>
</svg>