<?xml version="1.0" encoding="UTF-8"?>
<svg width="26px" height="36px" viewBox="0 0 26 36" version="1.1" xmlns="http://www.w3.org/2000/svg" xmlns:xlink="http://www.w3.org/1999/xlink">
    <title>A250C560-60ED-4002-8345-25E77D0F7E48</title>
    <g id="High-Fidelity" stroke="none" stroke-width="1" fill="none" fill-rule="evenodd">
        <g id="XL-Desktop---Email-Services---v01" transform="translate(-1283.000000, -2328.000000)" fill-rule="nonzero">
            <g id=".o-plan-comparison__fos-xl" transform="translate(376.000000, 1960.000000)">
                <g id=".m-chart__row04" transform="translate(0.000000, 355.000000)">
                    <g id=".m-chart__sheets" transform="translate(907.000000, 2.000000)">
                        <g id=".a-icon__google-sheets" transform="translate(0.000000, 11.000000)">
                            <path d="M19.2,14.2 L7.2,14.2 L5.2,14.2 L5.2,16.2 L5.2,23 L5.2,25 L7.2,25 L19.2,25 L21.2,25 L21.2,23 L21.2,16.2 L21.2,14.2 L19.2,14.2 Z M19.2,23 L7.2,23 L7.2,16.2 L19.2,16.2 L19.2,23 Z" id="Shape" fill="#FFFFFF"></path>
                            <path d="M23.6,35.8 L2.8,35.8 C1.474,35.8 0.4,34.726 0.4,33.4 L0.4,3 C0.4,1.674 1.474,0.6 2.8,0.6 L17.2,0.6 L26,9.4 L26,33.4 C26,34.726 24.926,35.8 23.6,35.8 Z" id="Path" fill="#00AC47"></path>
                            <polygon id="Path" fill="#00832D" points="17.2 0.6 26 9.4 17.2 9.4"></polygon>
                            <path d="M19.2,14.2 L14.2,14.2 L12.2,14.2 L7.2,14.2 L5.2,14.2 L5.2,16.2 L5.2,19 L5.2,21 L5.2,23.8 L5.2,25.8 L7.2,25.8 L12.2,25.8 L14.2,25.8 L19.2,25.8 L21.2,25.8 L21.2,23.8 L21.2,21 L21.2,19 L21.2,16.2 L21.2,14.2 L19.2,14.2 Z M7.2,16.2 L12.2,16.2 L12.2,19 L7.2,19 L7.2,16.2 Z M7.2,23.8 L7.2,21 L12.2,21 L12.2,23.8 L7.2,23.8 Z M19.2,23.8 L14.2,23.8 L14.2,21 L19.2,21 L19.2,23.8 Z M19.2,19 L14.2,19 L14.2,16.2 L19.2,16.2 L19.2,19 Z" id="Shape" fill="#FFFFFF"></path>
                        </g>
                    </g>
                </g>
            </g>
        </g>
    </g>
</svg>