<?xml version="1.0" encoding="UTF-8"?>
<svg width="35px" height="27px" viewBox="0 0 35 27" version="1.1" xmlns="http://www.w3.org/2000/svg" xmlns:xlink="http://www.w3.org/1999/xlink">
    <title>6EB73A10-DC2F-455E-948E-05BAF624732F</title>
    <g id="High-Fidelity" stroke="none" stroke-width="1" fill="none" fill-rule="evenodd">
        <g id="XL-Desktop---Email-Services---v01" transform="translate(-1279.000000, -2153.000000)">
            <g id=".o-plan-comparison__fos-xl" transform="translate(376.000000, 1960.000000)">
                <g id=".m-chart__row01" transform="translate(0.000000, 175.000000)">
                    <g id=".m-chart__gmail" transform="translate(903.000000, 2.000000)">
                        <g id=".a-icon__google-gmail" transform="translate(0.000000, 16.000000)">
                            <path d="M2.36480488,26.0128537 L7.88268293,26.0128537 L7.88268293,12.6122927 L0,6.70028049 L0,23.6480488 C0,24.9540945 1.05875921,26.0128537 2.36480488,26.0128537 Z" id="Path" fill="#4285F4" fill-rule="nonzero"></path>
                            <path d="M26.801122,26.0128537 L32.319,26.0128537 C33.6250457,26.0128537 34.6838049,24.9540945 34.6838049,23.6480488 L34.6838049,6.70028049 L26.801122,12.6122927 L26.801122,26.0128537 Z" id="Path" fill="#34A853" fill-rule="nonzero"></path>
                            <path d="M26.801122,2.36480488 L26.801122,12.6122927 L34.6838049,6.70028049 L34.6838049,3.54720732 C34.6838049,2.2036243 33.9246941,0.975357233 32.7229569,0.374488641 C31.5212197,-0.226379951 30.0831396,-0.0967083469 29.0082732,0.709441463 L26.801122,2.36480488 Z" id="Path" fill="#FBBC04" fill-rule="nonzero"></path>
                            <polygon id="Path" fill="#EA4335" points="7.88268293 12.6122927 7.88268293 2.36480488 17.3419024 9.45921951 26.801122 2.36480488 26.801122 12.6122927 17.3419024 19.7067073"></polygon>
                            <path d="M0,3.54720732 L0,6.70028049 L7.88268293,12.6122927 L7.88268293,2.36480488 L5.67553171,0.709441463 C4.60066529,-0.0967083469 3.16258516,-0.226379951 1.96084798,0.374488641 C0.759110795,0.975357233 0,2.2036243 0,3.54720732 Z" id="Path" fill="#C5221F" fill-rule="nonzero"></path>
                        </g>
                    </g>
                </g>
            </g>
        </g>
    </g>
</svg>