<?xml version="1.0" encoding="UTF-8"?>
<svg width="27px" height="37px" viewBox="0 0 27 37" version="1.1" xmlns="http://www.w3.org/2000/svg" xmlns:xlink="http://www.w3.org/1999/xlink">
    <title>347929AB-7560-4D51-B345-9B89EE1835A3</title>
    <g id="High-Fidelity" stroke="none" stroke-width="1" fill="none" fill-rule="evenodd">
        <g id="XL-Desktop---Email-Services---v01" transform="translate(-1283.000000, -2388.000000)" fill-rule="nonzero">
            <g id=".o-plan-comparison__fos-xl" transform="translate(376.000000, 1960.000000)">
                <g id=".m-chart__row05" transform="translate(0.000000, 415.000000)">
                    <g id=".m-chart__slides" transform="translate(907.000000, 2.000000)">
                        <g id=".a-icon__google-slides" transform="translate(0.000000, 11.000000)">
                            <path d="M24.0625,36.375 L2.9375,36.375 C1.59078125,36.375 0.5,35.2842188 0.5,33.9375 L0.5,3.0625 C0.5,1.71578125 1.59078125,0.625 2.9375,0.625 L17.5625,0.625 L26.5,9.5625 L26.5,33.9375 C26.5,35.2842188 25.4092188,36.375 24.0625,36.375 Z" id="Path" fill="#FFBA00"></path>
                            <polygon id="Path" fill="#FF9500" points="17.5625 0.625 26.5 9.5625 17.5625 9.5625"></polygon>
                            <path d="M19.59375,14.4375 L7.40625,14.4375 L5.375,14.4375 L5.375,16.46875 L5.375,23.375 L5.375,25.40625 L7.40625,25.40625 L19.59375,25.40625 L21.625,25.40625 L21.625,23.375 L21.625,16.46875 L21.625,14.4375 L19.59375,14.4375 Z M19.59375,23.375 L7.40625,23.375 L7.40625,16.46875 L19.59375,16.46875 L19.59375,23.375 Z" id="Shape" fill="#FFFFFF"></path>
                        </g>
                    </g>
                </g>
            </g>
        </g>
    </g>
</svg>