<?xml version="1.0" encoding="UTF-8"?>
<svg width="26px" height="36px" viewBox="0 0 26 36" version="1.1" xmlns="http://www.w3.org/2000/svg" xmlns:xlink="http://www.w3.org/1999/xlink">
    <title>BD7553BD-C930-462E-A215-DC2B087AAC8F</title>
    <g id="High-Fidelity" stroke="none" stroke-width="1" fill="none" fill-rule="evenodd">
        <g id="XL-Desktop---Email-Services---v01" transform="translate(-1283.000000, -2448.000000)" fill-rule="nonzero">
            <g id=".o-plan-comparison__fos-xl" transform="translate(376.000000, 1960.000000)">
                <g id=".m-chart__row06" transform="translate(0.000000, 475.000000)">
                    <g id=".m-chart__docs" transform="translate(907.000000, 2.000000)">
                        <g id=".a-icon__google-docs" transform="translate(0.000000, 11.000000)">
                            <path d="M23.6,35.8 L2.8,35.8 C1.474,35.8 0.4,34.726 0.4,33.4 L0.4,3 C0.4,1.674 1.474,0.6 2.8,0.6 L17.2,0.6 L26,9.4 L26,33.4 C26,34.726 24.926,35.8 23.6,35.8 Z" id="Path" fill="#2684FC"></path>
                            <polygon id="Path" fill="#0066DA" points="17.2 0.6 26 9.4 17.2 9.4"></polygon>
                            <polygon id="Path" fill="#FFFFFF" points="20.4 14.2 6 14.2 6 16.2 20.4 16.2"></polygon>
                            <polygon id="Path" fill="#FFFFFF" points="20.4 19 6 19 6 21 20.4 21"></polygon>
                            <polygon id="Path" fill="#FFFFFF" points="16.4 23.8 6 23.8 6 25.8 16.4 25.8"></polygon>
                        </g>
                    </g>
                </g>
            </g>
        </g>
    </g>
</svg>