<?xml version="1.0" encoding="UTF-8"?>
<svg width="32px" height="29px" viewBox="0 0 32 29" version="1.1" xmlns="http://www.w3.org/2000/svg" xmlns:xlink="http://www.w3.org/1999/xlink">
    <title>a-icon__assistant</title>
    <g id="High-Fidelity" stroke="none" stroke-width="1" fill="none" fill-rule="evenodd" stroke-linecap="square">
        <g id="XL-Desktop---Full-Service---v02" transform="translate(-983.000000, -818.000000)" stroke-width="2">
            <g id=".o-steps__fos-xl" transform="translate(360.000000, 700.000000)">
                <g id=".m-process_steps04" transform="translate(0.000000, 117.000000)">
                    <g id=".m-features__grid1x4">
                        <g id=".m-feature--icon" transform="translate(624.000000, 2.000000)">
                            <g id=".a-icon__assistant">
                                <circle id="Oval" stroke="#565656" cx="10" cy="15" r="3"></circle>
                                <path d="M15.9999988,27 L15.9999988,24.017 C16.0010184,23.3084714 15.6270881,22.6522864 15.017,22.292 C13.4908387,21.4190948 11.7579516,20.9728341 9.99999876,21 C8.23888709,20.9658061 6.50160725,21.4110143 4.974,22.288 C4.36921206,22.6494397 3.99921721,23.3024388 3.99999876,24.007 L3.99999876,27" id="Path" stroke="#565656"></path>
                                <polyline id="Path" stroke="#565656" points="12 6 0 6 0 27 27 27 27 15"></polyline>
                                <path d="M16,3 L16,8 C16,9.65685425 17.3431458,11 19,11 L19,11 L19,14 L24,11 L27,11 C28.6568542,11 30,9.65685425 30,8 L30,3 C30,1.34314575 28.6568542,0 27,0 L19,0 C17.3431458,0 16,1.34314575 16,3 Z" id="Path" stroke="#E65151"></path>
                            </g>
                        </g>
                    </g>
                </g>
            </g>
        </g>
    </g>
</svg>