<?xml version="1.0" encoding="UTF-8"?>
<svg width="33px" height="32px" viewBox="0 0 33 32" version="1.1" xmlns="http://www.w3.org/2000/svg" xmlns:xlink="http://www.w3.org/1999/xlink">
    <title>a-icon__call</title>
    <g id="High-Fidelity" stroke="none" stroke-width="1" fill="none" fill-rule="evenodd" stroke-linecap="square">
        <g id="XL-Desktop---Full-Service---v02" transform="translate(-359.000000, -816.000000)" stroke-width="2">
            <g id=".o-steps__fos-xl" transform="translate(360.000000, 700.000000)">
                <g id=".m-process_steps04" transform="translate(0.000000, 117.000000)">
                    <g id=".m-features__grid1x4">
                        <g id=".m-feature--icon">
                            <g id=".a-icon__call">
                                <path d="M18.694,19.293 L16.412,22.146 C12.877682,20.0686827 9.93231733,17.123318 7.855,13.589 L10.708,11.307 C11.3949793,10.7562484 11.6249041,9.81191449 11.268,9.007 L8.668,3.152 C8.28327185,2.28421836 7.32661565,1.82282223 6.408,2.062 L1.458,3.346 C0.501263601,3.59485554 -0.117376033,4.5208804 0.019,5.5 C1.80353212,18.2084528 11.7916202,28.1969488 24.5,29.982 C25.4783355,30.115952 26.4026151,29.4981915 26.653,28.543 L27.937,23.593 C28.1743375,22.6753666 27.7138574,21.7205788 26.848,21.335 L20.993,18.735 C20.1888612,18.377433 19.2447489,18.6065825 18.694,19.293 Z" id="Path" stroke="#565656"></path>
                                <path d="M24,-1.42962795e-05 C21.9455658,-0.00383831852 20.0325435,1.04563186 18.9318645,2.78034242 C17.8311856,4.51505297 17.6964833,6.69287234 18.575,8.55 L18,12.0001154 L21.45,11.425 C23.677723,12.4774883 26.3224332,12.06111 28.1190035,10.3750446 C29.9155737,8.68897914 30.4987801,6.07598605 29.5896391,3.78602006 C28.6804982,1.49605407 26.4638289,-0.00535849883 24,-1.42962795e-05 L24,-1.42962795e-05 Z" id="Path" stroke="#E65151"></path>
                            </g>
                        </g>
                    </g>
                </g>
            </g>
        </g>
    </g>
</svg>