<svg width="30" height="30" viewBox="0 0 30 30" fill="none" xmlns="http://www.w3.org/2000/svg">
<g clip-path="url(#clip0)">
<path d="M19.6877 26.0896C21.7299 25.7496 23.6387 24.8525 25.2039 23.4973C26.7691 22.142 27.9299 20.3812 28.5586 18.4086C29.1873 16.4359 29.2594 14.3281 28.7671 12.3171C28.2747 10.3061 27.237 8.47004 25.7681 7.01096C24.2993 5.55189 22.4563 4.52644 20.4421 4.04754C18.4278 3.56864 16.3205 3.65485 14.3522 4.29669C12.3838 4.93853 10.6307 6.1111 9.28597 7.68528C7.94122 9.25947 7.05694 11.1742 6.73051 13.2187C5.00711 13.4404 3.44048 14.3323 2.37005 15.701C1.29962 17.0698 0.811616 18.8052 1.01176 20.5312C1.2012 22.1118 1.96483 23.5676 3.15748 24.622C4.35013 25.6764 5.88864 26.2557 7.48051 26.2499H10.3127" stroke="#333333" stroke-width="2" stroke-miterlimit="10" stroke-linecap="square"/>
<path d="M15 14.0625V25.3125" stroke="#E24747" stroke-width="2" stroke-miterlimit="10"/>
<path d="M19.6875 20.625L15 25.3125L10.3125 20.625" stroke="#E24747" stroke-width="2" stroke-miterlimit="10" stroke-linecap="square"/>
</g>
<defs>
<clipPath id="clip0">
<rect width="30" height="30" fill="white"/>
</clipPath>
</defs>
</svg>
