<svg width="31" height="30" viewBox="0 0 31 30" fill="none" xmlns="http://www.w3.org/2000/svg">
<path d="M25.6569 7.58472C25.6551 7.59708 25.6547 7.59992 25.6514 7.62199C25.6514 7.62199 25.6541 7.60402 25.6569 7.58472Z" fill="#333333"/>
<path d="M25.6572 7.58459C25.6658 7.5273 25.6623 7.55055 25.6572 7.58459V7.58459Z" fill="#333333"/>
<path d="M23.6353 2.92159L23.6354 2.92171C24.1691 3.52984 24.4884 4.14004 24.6494 4.83183C24.8131 5.53595 24.8254 6.37897 24.6637 7.46706L24.6624 7.47477L24.6554 7.51671C24.6495 7.5524 24.6412 7.60184 24.6318 7.65686C24.6125 7.77002 24.5904 7.89594 24.5748 7.97628L24.5746 7.9769C23.9992 10.9331 22.755 12.8101 21.1261 13.9684C19.4758 15.1419 17.3098 15.6638 14.7468 15.6638H12.0117C10.9572 15.6638 10.0569 16.3666 9.77345 17.3499L9.75511 17.347L9.75487 17.3485L8.44265 25.6716H3.77493L7.6204 1.28283C7.62042 1.28274 7.62043 1.28266 7.62044 1.28257C7.64644 1.11956 7.78674 1 7.95135 1H17.2745C20.4135 1 22.5423 1.67587 23.6353 2.92159Z" stroke="#333333" stroke-width="2"/>
<path d="M14.6139 28.8269L14.6108 28.8427L14.6083 28.8587C14.5955 28.9401 14.5251 28.9998 14.4435 28.9998H11.6337L13.1496 19.323H14.7471C18.2886 19.323 21.2772 18.4602 23.5726 16.6935C25.135 15.491 26.3303 13.9048 27.1582 11.9803C27.1798 12.5935 27.1184 13.28 26.9698 14.0438C26.4711 16.6044 25.3971 18.2155 24.0032 19.2067C22.588 20.2131 20.7219 20.6667 18.4955 20.6667H17.7694C16.7074 20.6667 15.8036 21.4363 15.6314 22.4812L15.5743 22.791L15.572 22.8035L15.5701 22.8161L14.6581 28.5956L14.6139 28.8269Z" stroke="#E24747" stroke-width="2"/>
</svg>
