<?xml version="1.0" encoding="UTF-8"?>
<svg width="190px" height="180px" viewBox="0 0 190 180" version="1.1" xmlns="http://www.w3.org/2000/svg" xmlns:xlink="http://www.w3.org/1999/xlink">
    <title>a-graphic__card-img03-xl</title>
    <g id="High-Fidelity" stroke="none" stroke-width="1" fill="none" fill-rule="evenodd">
        <g id="XL-Desktop---Full-Service---v02" transform="translate(-360.000000, -1861.000000)">
            <g id=".o-benefits__fos_xl--grid2x2" transform="translate(360.000000, 1505.000000)">
                <g id=".m-card__feature" transform="translate(0.000000, 356.000000)">
                    <g id=".a-graphic__card-img03-xl">
                        <path d="M5,0 L190,0 L190,0 L190,180 L5,180 C2.23857625,180 3.38176876e-16,177.761424 0,175 L0,5 C-3.38176876e-16,2.23857625 2.23857625,5.07265313e-16 5,0 Z" id="Rectangle" fill="#000000"></path>
                        <rect id="Rectangle-Copy-58" fill="#FFFFFF" x="0" y="80" width="95" height="50"></rect>
                        <rect id="Rectangle-Copy-61" fill="#E24747" x="95" y="160" width="95" height="20"></rect>
                        <rect id="Rectangle-Copy-62" fill="#B63837" x="0" y="130" width="190" height="30"></rect>
                        <rect id="Rectangle" fill="#E24747" x="34" y="0" width="2" height="80"></rect>
                        <rect id="Rectangle-Copy-63" fill="#FFFFFF" x="129" y="0" width="2" height="160"></rect>
                        <rect id="Rectangle-Copy-53" fill="#E24747" x="46" y="0" width="2" height="80"></rect>
                        <rect id="Rectangle-Copy-66" fill="#FFFFFF" x="141" y="0" width="2" height="160"></rect>
                        <rect id="Rectangle-Copy-57" fill="#E24747" x="58" y="0" width="2" height="80"></rect>
                        <rect id="Rectangle-Copy-67" fill="#FFFFFF" x="153" y="0" width="2" height="160"></rect>
                    </g>
                </g>
            </g>
        </g>
    </g>
</svg>