<svg xmlns="http://www.w3.org/2000/svg" xmlns:xlink="http://www.w3.org/1999/xlink" viewBox="0 0 190 180"><defs><style>.cls-1,.cls-7{fill:#fff;}.cls-1,.cls-2,.cls-4,.cls-5{fill-rule:evenodd;}.cls-3{mask:url(#mask);}.cls-4,.cls-8{fill:#b63837;}.cls-5,.cls-6{fill:#e24747;}</style><mask id="mask" x="0" y="0" width="190" height="180" maskUnits="userSpaceOnUse"><g id="mask-2"><path id="path-1" class="cls-1" d="M5,0H190V180H5a5,5,0,0,1-5-5V5A5,5,0,0,1,5,0Z"/></g></mask></defs><g id="Layer_2" data-name="Layer 2"><g id="Layer_1-2" data-name="Layer 1"><g id="High-Fidelity"><g id="XL-Desktop---Full-Service---v02"><g id="_.o-benefits__fos_xl--grid2x2" data-name=".o-benefits__fos_xl--grid2x2"><g id="_.a-graphic__card-img02-xl" data-name=".a-graphic__card-img02-xl"><g id="Rectangle"><g id="path-1-10" data-name="path-1"><path class="cls-2" d="M5,0H190V180H5a5,5,0,0,1-5-5V5A5,5,0,0,1,5,0Z"/></g></g><g class="cls-3"><g id="Rectangle-Copy-58"><path class="cls-4" d="M0,30H143A60,60,0,0,1,83,90H0Z"/></g></g><g class="cls-3"><g id="Rectangle-Copy-60"><path class="cls-5" d="M125,0h65a30,30,0,0,1-30,30H95A30,30,0,0,1,125,0Z"/></g></g><g class="cls-3"><g id="Rectangle-2" data-name="Rectangle"><rect class="cls-6" x="112" y="91" width="78" height="89"/></g></g><g class="cls-3"><g id="Rectangle-Copy-75"><rect class="cls-7" y="90" width="190" height="2"/></g></g><g class="cls-3"><g id="Oval"><circle class="cls-6" cx="30" cy="150" r="10"/></g></g><g class="cls-3"><g id="Oval-Copy-5"><path class="cls-6" d="M82,160a10,10,0,1,1,10-10A10,10,0,0,1,82,160Zm0-18a8,8,0,1,0,8,8A8,8,0,0,0,82,142Z"/></g></g><g class="cls-3"><g id="Oval-Copy-2"><circle class="cls-7" cx="30" cy="124" r="10"/></g></g><g class="cls-3"><g id="Oval-Copy-6"><path class="cls-7" d="M56,134a10,10,0,1,1,10-10A10,10,0,0,1,56,134Zm0-18a8,8,0,1,0,8,8A8,8,0,0,0,56,116Z"/></g></g><g class="cls-3"><g id="Oval-Copy-3"><circle class="cls-8" cx="56" cy="150" r="10"/></g></g></g></g></g></g></g></g></svg>