<?xml version="1.0" encoding="UTF-8"?>
<svg width="41px" height="40px" viewBox="0 0 41 40" version="1.1" xmlns="http://www.w3.org/2000/svg" xmlns:xlink="http://www.w3.org/1999/xlink">
    <title>22BE2825-DE6C-4DCD-A216-6A967CCC8918</title>
    <g id="High-Fidelity" stroke="none" stroke-width="1" fill="none" fill-rule="evenodd">
        <g id="DMN---Dialed/Business-Phone-v01---Desktop-L" transform="translate(-238.000000, -2480.000000)">
            <g id=".o-features__fos-l" transform="translate(238.937500, 2147.000000)">
                <g id=".m-feature-grid3x2__fos-l" transform="translate(0.000000, 145.000000)">
                    <g id=".a-graphic__feature-grid-04" transform="translate(0.000000, 188.000000)">
                        <rect id="Rectangle" x="0" y="0" width="40" height="40"></rect>
                        <g id="Group-5" transform="translate(2.000000, 2.000000)" stroke-linecap="round" stroke-linejoin="round" stroke-width="2">
                            <circle id="Oval" stroke="#333333" cx="18" cy="18" r="6"></circle>
                            <path d="M36,20.4 L36,15.6 L30.7752,14.7288 C30.4608,13.5 29.9784,12.3432 29.3472,11.28 L32.4264,6.9696 L29.0304,3.576 L24.72,6.6528 C23.6568,6.0216 22.5,5.5392 21.2712,5.2248 L20.4,0 L15.6,0 L14.7288,5.2248 C13.5,5.5392 12.3432,6.0216 11.28,6.6528 L6.9696,3.576 L3.576,6.9696 L6.6528,11.28 C6.0216,12.3432 5.5392,13.5 5.2248,14.7288 L0,15.6 L0,20.4 L5.2248,21.2712 C5.5392,22.5 6.0216,23.6568 6.6528,24.72 L3.576,29.0304 L6.9696,32.424 L11.28,29.3472 C12.3432,29.9784 13.5,30.4608 14.7288,30.7752 L15.6,36 L20.4,36 L21.2712,30.7752 C22.5,30.4608 23.6568,29.9784 24.72,29.3472 L29.0304,32.4264 L32.424,29.0328 L29.3472,24.72 C29.9784,23.6568 30.4608,22.5 30.7752,21.2712 L36,20.4 Z" id="Path" stroke="#E24747"></path>
                        </g>
                    </g>
                </g>
            </g>
        </g>
    </g>
</svg>