<?xml version="1.0" encoding="UTF-8"?>
<svg width="252px" height="254px" viewBox="0 0 252 254" version="1.1" xmlns="http://www.w3.org/2000/svg" xmlns:xlink="http://www.w3.org/1999/xlink">
    <!-- Generator: Sketch 51.2 (57519) - http://www.bohemiancoding.com/sketch -->
    <title>Group 10</title>
    <desc>Created with Sketch.</desc>
    <defs></defs>
    <g id="Archived-Options" stroke="none" stroke-width="1" fill="none" fill-rule="evenodd">
        <g id="LV2" transform="translate(-118.000000, -2809.000000)" fill="#FFFFFF">
            <g id="Group-6" transform="translate(-52.000000, 2744.000000)">
                <g id="Group-10" transform="translate(170.000000, 65.000000)">
                    <path d="M128.278983,161.880885 C138.507715,161.070902 143.334114,154.979013 144.5264,134.889393 C144.733534,131.460579 144.733534,127.599546 144.341158,123.345434 C143.931941,117.454339 143.526092,113.610323 142.933318,110.360182 C140.115954,97.5825298 136.308386,93.5309132 128.073533,93.3148043 C127.07491,93.3148043 126.269949,93.3148043 125.266273,93.5309132 L125.266273,161.880885 L128.278983,161.880885 Z M86,192 L86.3435399,63 L131.199072,63 C165.955543,63 186.700974,85.3902439 185.981898,128.566081 C185.279662,169.951787 163.6417,192 131.023935,192 L86,192 Z" id="Fill-1"></path>
                    <path d="M126.005012,220.750585 C74.7074471,220.750585 32.9870312,178.695397 32.9870312,127.007578 C32.9870312,75.3046032 74.7074471,33.2426788 126.005012,33.2426788 C177.28754,33.2426788 219.022994,75.3046032 219.022994,127.007578 C219.022994,151.97832 209.257041,174.67731 193.424336,191.493997 L234.486448,191.493997 C245.597412,172.582381 252,150.531741 252,127.007578 C252,56.9722931 195.484459,0 126.005012,0 C56.5255662,0 0,56.9722931 0,127.007578 C0,197.026023 56.5255662,254 126.005012,254 C150.718135,254 173.773803,246.767107 193.238874,234.328889 L193.238874,191.689344 C176.293402,209.575387 152.427386,220.750585 126.005012,220.750585" id="Fill-3"></path>
                    <path d="M241,220.003351 C241,228.826893 233.83487,236 225.010059,236 C216.166806,236 209,228.826893 209,220.003351 C209,211.164729 216.166806,204 225.010059,204 C233.83487,204 241,211.164729 241,220.003351" id="Fill-7"></path>
                </g>
            </g>
        </g>
    </g>
</svg>