<?xml version="1.0" encoding="UTF-8"?>
<svg width="40px" height="41px" viewBox="0 0 40 41" version="1.1" xmlns="http://www.w3.org/2000/svg" xmlns:xlink="http://www.w3.org/1999/xlink">
    <title>B249F736-B4C3-49C2-9ABD-D14269898BF3</title>
    <g id="High-Fidelity" stroke="none" stroke-width="1" fill="none" fill-rule="evenodd">
        <g id="DMN---Dialed/Business-Phone-v01---Desktop-L" transform="translate(-568.000000, -2295.000000)">
            <g id=".o-features__fos-l" transform="translate(238.937500, 2147.000000)">
                <g id=".m-feature-grid3x2__fos-l" transform="translate(0.000000, 145.000000)">
                    <g id=".a-graphic__feature-grid-02" transform="translate(329.062500, 4.000000)">
                        <rect id="Rectangle" x="0" y="0" width="40" height="40"></rect>
                        <g id="Group-2" transform="translate(4.000000, 1.000000)" stroke-linecap="square" stroke-width="2">
                            <rect id="Rectangle" stroke="#333333" x="9.17241385" y="18.3448277" width="13.1034484" height="9.17241385"></rect>
                            <path d="M11.7931035,18.3448277 L11.7931035,14.4137932 C11.7931035,12.2427428 13.5530876,10.4827587 15.724138,10.4827587 L15.724138,10.4827587 C17.8951884,10.4827587 19.6551725,12.2427428 19.6551725,14.4137932 L19.6551725,18.3448277" id="Path" stroke="#333333"></path>
                            <path d="M31.4482761,22.2758622 C31.4482761,30.9600638 24.4083396,38 15.724138,38 C7.03993648,38 0,30.9600638 0,22.2758622 L0,3.93103451 L15.724138,4.65528002e-15 L31.4482761,3.93103451 L31.4482761,22.2758622 Z" id="Path" stroke="#E24747"></path>
                        </g>
                    </g>
                </g>
            </g>
        </g>
    </g>
</svg>