<?xml version="1.0" encoding="UTF-8"?>
<svg width="40px" height="40px" viewBox="0 0 40 40" version="1.1" xmlns="http://www.w3.org/2000/svg" xmlns:xlink="http://www.w3.org/1999/xlink">
    <title>3E4E6114-1D74-436F-A2EC-B57B223F0838</title>
    <g id="High-Fidelity" stroke="none" stroke-width="1" fill="none" fill-rule="evenodd">
        <g id="S-Mobile---Domain-Search---v01" transform="translate(-238.000000, -3743.000000)">
            <g id=".o-features__fos-s" transform="translate(238.000000, 3237.000000)">
                <g id=".o-feature-grid1x6__fos-s" transform="translate(-0.000000, 156.000000)">
                    <g id=".a-graphic__feature-grid-03" transform="translate(-0.000000, 350.000000)">
                        <rect id="Rectangle" x="0" y="0" width="40" height="40"></rect>
                        <g id=".a-icon__plug" transform="translate(2.000000, 2.000000)" stroke-linecap="square" stroke-width="2">
                            <line x1="0" y1="36" x2="5.14414286" y2="30.8558571" id="Path" stroke="#666666"></line>
                            <line x1="15.4285714" y1="15.4285714" x2="11.5714286" y2="19.2857143" id="Path" stroke="#666666"></line>
                            <line x1="20.5714286" y1="20.5714286" x2="16.7142857" y2="24.4285714" id="Path" stroke="#666666"></line>
                            <path d="M7.93157143,15.6458571 L5.14285714,18.432 C1.71174881,21.8631085 1.71174887,27.4260343 5.14285727,30.8571427 C8.57396568,34.2882511 14.1368915,34.2882512 17.568,30.8571429 L20.3541429,28.0697143 L7.93157143,15.6458571 Z" id="Path" stroke="#666666"></path>
                            <line x1="36" y1="0" x2="30.8558571" y2="5.14414286" id="Path" stroke="#E24747"></line>
                            <path d="M28.0684286,20.3541429 L30.8571429,17.568 C34.2882512,14.1368915 34.2882511,8.57396568 30.8571427,5.14285727 C27.4260343,1.71174887 21.8631085,1.71174881 18.432,5.14285714 L15.6458571,7.93157143 L28.0684286,20.3541429 Z" id="Path" stroke="#E24747"></path>
                        </g>
                    </g>
                </g>
            </g>
        </g>
    </g>
</svg>